<svg xmlns="http://www.w3.org/2000/svg" viewBox="0 0 2130.8348 292.89138"><defs><style>.cls-1,.cls-3{fill:#6987a1;}.cls-2{fill:#76b833;}.cls-3{fill-rule:evenodd;}.cls-4,.cls-5{fill:none;}.cls-5{stroke:#6987a1;stroke-linecap:round;stroke-miterlimit:10;stroke-width:20px;}</style></defs><g id="Ebene_2" data-name="Ebene 2"><g id="Ebene_1-2" data-name="Ebene 1"><path class="cls-1" d="M538.89028,132.98512a17.3608,17.3608,0,1,1-17.375,17.36088A17.3914,17.3914,0,0,1,538.89028,132.98512Z"/><path class="cls-2" d="M568.52262,201.71967c54.34281,1.65617,98.92871-56.29412,83.26055-108.36372C639.5906,46.1251,583.66786,15.70131,537.43662,35.107c-46.04943,16.788-70.10025,76.57641-45.65991,119.82734C506.06754,183.05252,536.78709,202.136,568.52262,201.71967Zm-3.25477,28.97083c-65.70165.27964-121.37187-64.73613-111.32246-129.66772C460.64088,38.039,526.14707-10.69185,588.67857,2.03139c61.26071,10.108,106.9516,75.30941,92.71774,136.56061C671.08479,191.58063,619.74476,233.429,565.26785,230.6905Z"/><path class="cls-3" d="M145.11263,43.89609H63.66538C28.568,43.89609,0,68.13278,0,97.92439v66.17077c0,29.79179,28.568,54.02549,63.66538,54.02549H183.98019v20.74172c0,16.12856-17.43167,29.248-38.86756,29.248L22.3364,268.09453l-7.72243-.01972v.16218c-.35972-.02958-.69712-.10671-1.0568-.10671a12.34551,12.34551,0,1,0,0,24.691c.35968,0,.69708-.08681,1.0568-.10636v.14651l130.49866.02994c35.10934,0,63.66542-24.23775,63.66542-54.029V97.92439C208.77805,68.13278,180.222,43.89609,145.11263,43.89609ZM183.98019,193.3437H63.66538c-21.43339,0-38.86809-13.12015-38.86809-29.24854V97.92439c0-16.13156,17.4347-29.25118,38.86809-29.25118h81.44725c21.43554,0,38.86756,13.11962,38.86756,29.25118Z"/><path class="cls-3" d="M436.46309,143.56669V97.92439c0-29.79161-28.55754-54.0283-63.6571-54.0283H291.35148c-35.11,0-63.65812,24.23669-63.65812,54.0283v66.17077c0,29.79179,28.54816,54.02549,63.65812,54.02549l132.70835.00968v-.00968a12.38848,12.38848,0,1,0,0-24.77695H291.35148c-21.42613,0-38.86083-13.12015-38.86083-29.24854V143.4325ZM291.35148,68.67321H372.806c21.42612,0,38.86,13.11962,38.86,29.25118V118.6633H252.49065V97.92439C252.49065,81.79283,269.92535,68.67321,291.35148,68.67321Z"/><path class="cls-3" d="M844.83327,43.89609h-81.4472c-35.10987,0-63.66538,24.23669-63.66538,54.0283V278.41582a12.39865,12.39865,0,0,0,24.79729,0V218.12065H844.83327c35.10714,0,63.66547-24.2337,63.66547-54.02549V97.92439C908.49874,68.13278,879.94041,43.89609,844.83327,43.89609ZM724.518,97.92439c0-16.13156,17.43184-29.25118,38.86809-29.25118h81.4472c21.43379,0,38.878,13.11962,38.878,29.25118v66.17077c0,16.12839-17.44425,29.24854-38.878,29.24854H724.518Z"/><path class="cls-3" d="M1086.51049,118.13272a6.16529,6.16529,0,0,0-.863-.07889l-1.1043-.01743a6.92191,6.92191,0,0,0-1.4836.01743h-66.6295l.02738-.047-42.37625.02958a24.73079,24.73079,0,0,1-.31011-49.46h146.82881a12.39635,12.39635,0,1,0,0-24.77677l-146.5187-.01744a49.50586,49.50586,0,0,0-.32745,99.011l65.49633.03751v.00951l45.46708-.00951a25.16279,25.16279,0,0,1-1.201,50.30934h-.04015l-146.41939-.02659a12.388,12.388,0,1,0,0,24.77607h144.40521a1.237,1.237,0,0,0,.50416-.05864l.63729.03962c.40942.02959.82624.06674,1.24024.06674a49.9358,49.9358,0,0,0,2.667-99.80443Z"/><rect id="SVGID" class="cls-4" y="43.78215" width="1133.85809" height="249.10835"/><line class="cls-5" x1="1289.19796" y1="43.10229" x2="1289.19796" y2="218.61701"/><path class="cls-2" d="M1614.618,133.78884a104.89562,104.89562,0,0,1-6.62988,38.08984,84.45351,84.45351,0,0,1-18.71973,29.37989,83.45443,83.45443,0,0,1-28.99023,18.915,100.8079,100.8079,0,0,1-37.44043,6.69531H1453.158v-186.29h69.67969a100.85714,100.85714,0,0,1,37.44043,6.69482,83.05228,83.05228,0,0,1,28.99023,18.98A85.16336,85.16336,0,0,1,1607.98812,95.699,104.90682,104.90682,0,0,1,1614.618,133.78884Zm-25.87012,0a93.50131,93.50131,0,0,0-4.67968-30.67969,64.662,64.662,0,0,0-13.26075-22.88037,56.57507,56.57507,0,0,0-20.7998-14.2998,71.90612,71.90612,0,0,0-27.16992-4.93995h-44.33008V206.45876h44.33008a71.87768,71.87768,0,0,0,27.16992-4.93945,56.91739,56.91739,0,0,0,20.7998-14.23535,63.958,63.958,0,0,0,13.26075-22.81543A93.491,93.491,0,0,0,1588.74788,133.78884Z"/><path class="cls-2" d="M1665.8348,53.83913a14.71618,14.71618,0,0,1-1.36524,6.30469,18.16059,18.16059,0,0,1-3.63964,5.2002,16.90045,16.90045,0,0,1-5.26465,3.5747,15.79674,15.79674,0,0,1-6.37012,1.3003,15.3295,15.3295,0,0,1-6.30566-1.3003,17.32874,17.32874,0,0,1-8.77442-8.7749,15.33253,15.33253,0,0,1-1.2998-6.30469,16.25941,16.25941,0,0,1,1.2998-6.43506,16.68538,16.68538,0,0,1,3.5752-5.33007,17.15785,17.15785,0,0,1,5.19922-3.5752,15.36871,15.36871,0,0,1,6.30566-1.2998,15.83762,15.83762,0,0,1,6.37012,1.2998,16.96877,16.96877,0,0,1,5.26465,3.5752,17.66944,17.66944,0,0,1,3.63964,5.33007A15.60044,15.60044,0,0,1,1665.8348,53.83913ZM1660.6346,95.179V226.86892H1637.495V95.179Z"/><path class="cls-2" d="M1736.81429,92.969A65.57516,65.57516,0,0,1,1752.87,94.85378a50.60256,50.60256,0,0,1,13.585,5.5249h35.75v8.58008q0,4.29052-5.46,5.46l-14.95019,2.08008a40.06781,40.06781,0,0,1,4.41992,18.8501,40.51532,40.51532,0,0,1-3.70508,17.48486,39.65308,39.65308,0,0,1-10.26953,13.45508,46.08657,46.08657,0,0,1-15.60058,8.58008,62.74472,62.74472,0,0,1-19.8252,2.99023,66.55787,66.55787,0,0,1-17.41992-2.21,22.13006,22.13006,0,0,0-6.30469,5.77832,10.63231,10.63231,0,0,0-2.14453,6.04981,8.20823,8.20823,0,0,0,3.76953,7.32421,26.23485,26.23485,0,0,0,10.00977,3.5625,83.92221,83.92221,0,0,0,14.16992,1.0752h16.18555a89.96779,89.96779,0,0,1,16.18457,1.44824,49.12379,49.12379,0,0,1,14.16992,4.73633,26.47643,26.47643,0,0,1,10.01074,9.082q3.769,5.78907,3.76953,15.001a35.19638,35.19638,0,0,1-4.22461,16.58105,44.78735,44.78735,0,0,1-12.15527,14.2793,62.44661,62.44661,0,0,1-19.37012,10.002,82.89628,82.89628,0,0,1-25.87012,3.75,99.77888,99.77888,0,0,1-25.28515-2.8623,59.21955,59.21955,0,0,1-18.00488-7.67774,33.4523,33.4523,0,0,1-10.72461-11.12793,26.41116,26.41116,0,0,1-3.5752-13.209,23.84992,23.84992,0,0,1,6.17481-16.59082q6.17284-6.832,16.96484-10.86719a23.25247,23.25247,0,0,1-8.9043-6.94336q-3.31494-4.34764-3.31543-11.61816a18.24806,18.24806,0,0,1,1.04-5.90527,23.20794,23.20794,0,0,1,3.18457-6.03516,33.90758,33.90758,0,0,1,5.26563-5.71094,34.26537,34.26537,0,0,1,7.28027-4.80273,40.96309,40.96309,0,0,1-15.27539-14.49414,39.67294,39.67294,0,0,1-5.52539-21.12549,40.52926,40.52926,0,0,1,3.70508-17.48487,38.69079,38.69079,0,0,1,10.335-13.39013,47.31,47.31,0,0,1,15.79492-8.51514A64.47382,64.47382,0,0,1,1736.81429,92.969Zm41.08008,140.58251a11.66052,11.66052,0,0,0-2.72949-8.08593,17.59317,17.59317,0,0,0-7.41016-4.709,52.93019,52.93019,0,0,0-10.79-2.45117,99.74854,99.74854,0,0,0-12.87012-.79687h-13.78027a50.18607,50.18607,0,0,1-13.38965-1.75489,38.02471,38.02471,0,0,0-12.02539,8.59473,17.37887,17.37887,0,0,0-4.61426,12.1084,15.94926,15.94926,0,0,0,2.27442,8.2666,19.4085,19.4085,0,0,0,6.95508,6.64062,40.778,40.778,0,0,0,11.76562,4.42774,75.46673,75.46673,0,0,0,16.70508,1.62695,74.32586,74.32586,0,0,0,16.76953-1.72265,41.7457,41.7457,0,0,0,12.54492-4.90528,23.8552,23.8552,0,0,0,7.86524-7.55859A17.92949,17.92949,0,0,0,1777.89437,233.55153Zm-41.08008-71.03222a36.42654,36.42654,0,0,0,12.415-1.9502,25.10716,25.10716,0,0,0,9.03516-5.46,22.36207,22.36207,0,0,0,5.46-8.38476,30.45863,30.45863,0,0,0,1.82031-10.72559q0-12.09009-7.34473-19.23975-7.34619-7.14843-21.38574-7.1499-13.91161,0-21.25488,7.1499-7.34619,7.15063-7.34473,19.23975a29.50279,29.50279,0,0,0,1.88477,10.72559,22.99633,22.99633,0,0,0,5.52539,8.38476,25.15841,25.15841,0,0,0,8.96972,5.46A35.4399,35.4399,0,0,0,1736.81429,162.51931Z"/><path class="cls-2" d="M1856.28109,53.83913a14.71618,14.71618,0,0,1-1.36524,6.30469,18.16042,18.16042,0,0,1-3.63965,5.2002,16.90029,16.90029,0,0,1-5.26464,3.5747,15.79674,15.79674,0,0,1-6.37012,1.3003,15.3295,15.3295,0,0,1-6.30566-1.3003,17.32874,17.32874,0,0,1-8.77442-8.7749,15.33253,15.33253,0,0,1-1.2998-6.30469,16.25941,16.25941,0,0,1,1.2998-6.43506,16.68538,16.68538,0,0,1,3.5752-5.33007,17.15773,17.15773,0,0,1,5.19922-3.5752,15.36871,15.36871,0,0,1,6.30566-1.2998,15.83762,15.83762,0,0,1,6.37012,1.2998,16.96861,16.96861,0,0,1,5.26464,3.5752,17.66929,17.66929,0,0,1,3.63965,5.33007A15.60044,15.60044,0,0,1,1856.28109,53.83913Zm-5.2002,41.33985V226.86892h-23.13965V95.179Z"/><path class="cls-2" d="M1931.81038,228.949q-15.59911,0-23.98437-8.71-8.38476-8.70849-8.38574-25.08984v-80.6001h-15.85938a5.17177,5.17177,0,0,1-3.50976-1.23535,4.79045,4.79045,0,0,1-1.43067-3.835v-9.23l21.58008-2.73,5.33008-40.68994a4.91432,4.91432,0,0,1,1.69043-3.18506,5.36735,5.36735,0,0,1,3.63965-1.23486h11.70019V97.77907h37.7002v16.77h-37.7002v79.03955q0,8.32179,4.03028,12.35059a14.06556,14.06556,0,0,0,10.39941,4.0293,18.35409,18.35409,0,0,0,6.30469-.97461,27.18335,27.18335,0,0,0,4.61523-2.14453q1.94971-1.17042,3.31543-2.14551a4.33055,4.33055,0,0,1,2.40527-.97461q1.81788,0,3.25,2.21l6.75977,11.0498a43.08972,43.08972,0,0,1-14.43066,8.77442A49.0059,49.0059,0,0,1,1931.81038,228.949Z"/><path class="cls-2" d="M2075.19808,226.86892h-10.27051a12.23883,12.23883,0,0,1-5.46-1.04q-2.08008-1.03857-2.72949-4.41992l-2.60059-12.21973q-5.20018,4.68018-10.13965,8.38477a58.11165,58.11165,0,0,1-10.40039,6.24023,53.86068,53.86068,0,0,1-11.63476,3.835,66.8421,66.8421,0,0,1-13.71485,1.29981,46.73533,46.73533,0,0,1-14.36523-2.15137,32.67656,32.67656,0,0,1-11.63477-6.457,30.73193,30.73193,0,0,1-7.86523-10.89356,38.173,38.173,0,0,1-2.9248-15.58789,29.14378,29.14378,0,0,1,4.29-15.06543q4.29054-7.24073,13.84473-12.85058,9.55518-5.60889,25.02539-9.19727,15.46875-3.58593,37.83008-3.58691V142.824q0-15.4358-6.56543-23.34913-6.56543-7.916-19.43457-7.916a41.18864,41.18864,0,0,0-14.23535,2.145,53.90829,53.90829,0,0,0-10.00977,4.81006q-4.22607,2.666-7.28027,4.81006a10.50438,10.50438,0,0,1-6.04492,2.145,6.928,6.928,0,0,1-4.09473-1.23487,9.37829,9.37829,0,0,1-2.79492-3.05517l-4.16016-7.41016a75.20956,75.20956,0,0,1,23.53028-15.73,72.66727,72.66727,0,0,1,27.94921-5.19971,49.90266,49.90266,0,0,1,19.63086,3.63965,40.27921,40.27921,0,0,1,14.42969,10.14014,42.99069,42.99069,0,0,1,8.83985,15.73,65.52914,65.52914,0,0,1,2.99023,20.27978ZM2015.13753,212.699a47.14849,47.14849,0,0,0,11.18067-1.23536,44.02608,44.02608,0,0,0,9.55468-3.50976,50.50288,50.50288,0,0,0,8.58008-5.52539,74.15358,74.15358,0,0,0,7.99512-7.40918V167.84939a155.235,155.235,0,0,0-27.16992,2.02636,76.02841,76.02841,0,0,0-18.2002,5.2959q-7.01952,3.26953-10.20508,7.71485a16.65335,16.65335,0,0,0-3.18457,9.93652,22.02772,22.02772,0,0,0,1.68946,9.02246,17.05741,17.05741,0,0,0,4.5498,6.21191,17.88025,17.88025,0,0,0,6.76074,3.53028A30.70535,30.70535,0,0,0,2015.13753,212.699Z"/><path class="cls-2" d="M2130.8348,35.37868V226.86892h-23.13965V35.37868Z"/></g></g></svg>