<svg xmlns="http://www.w3.org/2000/svg" viewBox="0 0 1215.8006 270.41845"><defs><style>.cls-1{fill:#6987a1;}.cls-2{fill:#76b833;}.cls-3{fill:none;stroke:#6987a1;stroke-linecap:round;stroke-miterlimit:10;stroke-width:20px;}</style></defs><g id="Ebene_2" data-name="Ebene 2"><g id="Ebene_1-2" data-name="Ebene 1"><path class="cls-1" d="M86.1236,132.98512a17.3608,17.3608,0,1,1-17.375,17.36088A17.3914,17.3914,0,0,1,86.1236,132.98512Z"/><path class="cls-2" d="M115.75593,201.71967c54.34281,1.65617,98.92871-56.29412,83.26055-108.36372C186.82391,46.1251,130.90118,15.70131,84.66993,35.107,38.6205,51.895,14.56968,111.68341,39.01,154.93434,53.30086,183.05252,84.0204,202.136,115.75593,201.71967Zm-3.25477,28.97083C46.79951,230.97014-8.8707,165.95437,1.1787,101.02278,7.87419,38.039,73.38038-10.69185,135.91188,2.03139c61.26071,10.108,106.95161,75.30941,92.71774,136.56061C218.3181,191.58063,166.97807,233.429,112.50116,230.6905Z"/><line class="cls-3" x1="374.16375" y1="39.20163" x2="374.16375" y2="214.71635"/><path class="cls-2" d="M699.5838,129.88818a104.89562,104.89562,0,0,1-6.62988,38.08984,84.45365,84.45365,0,0,1-18.71973,29.37989,83.45445,83.45445,0,0,1-28.99023,18.915,100.8077,100.8077,0,0,1-37.44043,6.69532H538.12384v-186.29h69.67969A100.85714,100.85714,0,0,1,645.244,43.373a83.05246,83.05246,0,0,1,28.99023,18.98,85.16356,85.16356,0,0,1,18.71973,29.44531A104.90692,104.90692,0,0,1,699.5838,129.88818Zm-25.87012,0A93.501,93.501,0,0,0,669.034,99.20849a64.66173,64.66173,0,0,0-13.26074-22.88037,56.57507,56.57507,0,0,0-20.7998-14.2998,71.90593,71.90593,0,0,0-27.16992-4.94H563.47345V202.5581h44.33008a71.87768,71.87768,0,0,0,27.16992-4.93945,56.91739,56.91739,0,0,0,20.7998-14.23535A63.95794,63.95794,0,0,0,669.034,160.56787,93.49071,93.49071,0,0,0,673.71368,129.88818Z"/><path class="cls-2" d="M750.8006,49.93847a14.71618,14.71618,0,0,1-1.36524,6.30469,18.16038,18.16038,0,0,1-3.63965,5.20019,16.90037,16.90037,0,0,1-5.26465,3.57471,15.79665,15.79665,0,0,1-6.37011,1.30029,15.32954,15.32954,0,0,1-6.30567-1.30029,17.32877,17.32877,0,0,1-8.77441-8.7749,15.33253,15.33253,0,0,1-1.29981-6.30469,16.25942,16.25942,0,0,1,1.29981-6.43506,16.6854,16.6854,0,0,1,3.57519-5.33008,17.158,17.158,0,0,1,5.19922-3.57519,15.36877,15.36877,0,0,1,6.30567-1.29981,15.83754,15.83754,0,0,1,6.37011,1.29981,16.96879,16.96879,0,0,1,5.26465,3.57519,17.66934,17.66934,0,0,1,3.63965,5.33008A15.60044,15.60044,0,0,1,750.8006,49.93847Zm-5.2002,41.33985V222.96826H722.46075V91.27832Z"/><path class="cls-2" d="M821.78009,89.06835a65.57515,65.57515,0,0,1,16.05566,1.88477,50.60217,50.60217,0,0,1,13.585,5.5249h35.75v8.58008q0,4.29053-5.46,5.46l-14.95019,2.08008a40.06781,40.06781,0,0,1,4.41992,18.8501,40.51532,40.51532,0,0,1-3.70508,17.48486,39.65321,39.65321,0,0,1-10.26953,13.45508,46.08662,46.08662,0,0,1-15.60059,8.58008,62.74462,62.74462,0,0,1-19.82519,2.99023,66.55787,66.55787,0,0,1-17.41992-2.21,22.13006,22.13006,0,0,0-6.30469,5.77832,10.63231,10.63231,0,0,0-2.14453,6.04981,8.20823,8.20823,0,0,0,3.76953,7.32421,26.2348,26.2348,0,0,0,10.00976,3.5625,83.92242,83.92242,0,0,0,14.16993,1.0752h16.18554a89.96779,89.96779,0,0,1,16.18457,1.44824,49.12375,49.12375,0,0,1,14.16993,4.73633,26.47643,26.47643,0,0,1,10.01074,9.082q3.769,5.78907,3.76953,15.001a35.19638,35.19638,0,0,1-4.22461,16.58105,44.78735,44.78735,0,0,1-12.15527,14.2793,62.44682,62.44682,0,0,1-19.37012,10.002,82.89628,82.89628,0,0,1-25.87012,3.75,99.77883,99.77883,0,0,1-25.28515-2.8623,59.22022,59.22022,0,0,1-18.00489-7.67774,33.4525,33.4525,0,0,1-10.72461-11.12793,26.41125,26.41125,0,0,1-3.57519-13.209,23.84992,23.84992,0,0,1,6.1748-16.59082q6.17286-6.832,16.96485-10.86719a23.2524,23.2524,0,0,1-8.9043-6.94336q-3.31494-4.34766-3.31543-11.61816a18.24789,18.24789,0,0,1,1.04-5.90528,23.208,23.208,0,0,1,3.18457-6.03515,33.9075,33.9075,0,0,1,5.26562-5.71094,34.26532,34.26532,0,0,1,7.28028-4.80273,40.963,40.963,0,0,1-15.27539-14.49414,39.67294,39.67294,0,0,1-5.52539-21.12549,40.5294,40.5294,0,0,1,3.70507-17.48487,38.69082,38.69082,0,0,1,10.335-13.39013,47.31,47.31,0,0,1,15.79492-8.51514A64.47353,64.47353,0,0,1,821.78009,89.06835Zm41.08008,140.58252a11.66048,11.66048,0,0,0-2.7295-8.08593,17.59313,17.59313,0,0,0-7.41015-4.709,52.93034,52.93034,0,0,0-10.79-2.45117,99.74854,99.74854,0,0,0-12.87012-.79687H815.28009a50.18648,50.18648,0,0,1-13.38965-1.75489,38.02471,38.02471,0,0,0-12.02539,8.59473,17.37885,17.37885,0,0,0-4.61426,12.1084,15.94916,15.94916,0,0,0,2.27442,8.2666,19.40855,19.40855,0,0,0,6.95507,6.64062,40.77845,40.77845,0,0,0,11.76563,4.42774,75.46667,75.46667,0,0,0,16.70508,1.62695,74.32593,74.32593,0,0,0,16.76953-1.72265,41.7458,41.7458,0,0,0,12.54492-4.90528,23.85507,23.85507,0,0,0,7.86523-7.55859A17.92941,17.92941,0,0,0,862.86017,229.65087Zm-41.08008-71.03222a36.42654,36.42654,0,0,0,12.415-1.9502,25.10717,25.10717,0,0,0,9.03515-5.46,22.362,22.362,0,0,0,5.46-8.38476,30.45863,30.45863,0,0,0,1.82032-10.72559q0-12.09009-7.34473-19.23975-7.34619-7.14843-21.38574-7.1499-13.91163,0-21.25488,7.1499-7.34621,7.15063-7.34473,19.23975a29.503,29.503,0,0,0,1.88476,10.72559,22.99646,22.99646,0,0,0,5.52539,8.38476,25.1586,25.1586,0,0,0,8.96973,5.46A35.4399,35.4399,0,0,0,821.78009,158.61865Z"/><path class="cls-2" d="M941.24688,49.93847a14.71617,14.71617,0,0,1-1.36523,6.30469,18.16057,18.16057,0,0,1-3.63965,5.20019,16.90037,16.90037,0,0,1-5.26465,3.57471,15.79665,15.79665,0,0,1-6.37011,1.30029,15.32954,15.32954,0,0,1-6.30567-1.30029,17.32877,17.32877,0,0,1-8.77441-8.7749,15.33253,15.33253,0,0,1-1.29981-6.30469,16.25942,16.25942,0,0,1,1.29981-6.43506,16.6854,16.6854,0,0,1,3.57519-5.33008,17.158,17.158,0,0,1,5.19922-3.57519,15.36877,15.36877,0,0,1,6.30567-1.29981,15.83754,15.83754,0,0,1,6.37011,1.29981,16.96879,16.96879,0,0,1,5.26465,3.57519,17.66952,17.66952,0,0,1,3.63965,5.33008A15.60043,15.60043,0,0,1,941.24688,49.93847Zm-5.20019,41.33985V222.96826H912.907V91.27832Z"/><path class="cls-2" d="M1016.77618,225.04833q-15.59911,0-23.98437-8.71-8.38478-8.70849-8.38575-25.08984v-80.6001H968.54669a5.17178,5.17178,0,0,1-3.50977-1.23535,4.79048,4.79048,0,0,1-1.43066-3.835v-9.23l21.58008-2.73,5.33008-40.68994a4.91432,4.91432,0,0,1,1.69043-3.18506,5.36731,5.36731,0,0,1,3.63964-1.23486h11.7002V93.87841h37.70019v16.77h-37.70019V189.688q0,8.32177,4.03027,12.35059a14.06559,14.06559,0,0,0,10.39942,4.0293,18.354,18.354,0,0,0,6.30468-.97461,27.18347,27.18347,0,0,0,4.61524-2.14453q1.9497-1.17042,3.31543-2.14551a4.33052,4.33052,0,0,1,2.40527-.97461q1.81788,0,3.25,2.21l6.75977,11.0498a43.08977,43.08977,0,0,1-14.43067,8.77442A49.00606,49.00606,0,0,1,1016.77618,225.04833Z"/><path class="cls-2" d="M1160.16388,222.96826h-10.27051a12.2388,12.2388,0,0,1-5.46-1.04q-2.08008-1.03859-2.72949-4.41992l-2.60059-12.21973q-5.2002,4.68018-10.13965,8.38476a58.11112,58.11112,0,0,1-10.40039,6.24024,53.86086,53.86086,0,0,1-11.63476,3.835,66.84291,66.84291,0,0,1-13.71485,1.2998,46.73558,46.73558,0,0,1-14.36523-2.15136,32.67647,32.67647,0,0,1-11.63477-6.457,30.73181,30.73181,0,0,1-7.86523-10.89356,38.17294,38.17294,0,0,1-2.92481-15.58789,29.14377,29.14377,0,0,1,4.29-15.06543q4.29052-7.24072,13.84473-12.85058,9.55518-5.60889,25.02539-9.19727,15.46875-3.58595,37.83008-3.58691v-10.335q0-15.43578-6.56543-23.34912-6.56544-7.916-19.43457-7.916a41.1886,41.1886,0,0,0-14.23535,2.145,53.908,53.908,0,0,0-10.00977,4.81006q-4.22607,2.666-7.28027,4.81005a10.50431,10.50431,0,0,1-6.04493,2.145,6.92794,6.92794,0,0,1-4.09472-1.23486,9.37829,9.37829,0,0,1-2.79492-3.05517l-4.16016-7.41016a75.20952,75.20952,0,0,1,23.53027-15.73,72.66736,72.66736,0,0,1,27.94922-5.19971,49.90269,49.90269,0,0,1,19.63086,3.63965,40.27921,40.27921,0,0,1,14.42969,10.14014,42.99067,42.99067,0,0,1,8.83984,15.73,65.52883,65.52883,0,0,1,2.99024,20.27978Zm-60.06055-14.16993A47.14842,47.14842,0,0,0,1111.284,207.563a44.026,44.026,0,0,0,9.55469-3.50976,50.50288,50.50288,0,0,0,8.58008-5.52539,74.15358,74.15358,0,0,0,7.99512-7.40918V163.94873a155.23492,155.23492,0,0,0-27.16992,2.02636,76.02841,76.02841,0,0,0-18.2002,5.2959q-7.01953,3.26953-10.20508,7.71484a16.6534,16.6534,0,0,0-3.18457,9.93653,22.02788,22.02788,0,0,0,1.68945,9.02246,17.05732,17.05732,0,0,0,4.54981,6.21191,17.88032,17.88032,0,0,0,6.76074,3.53028A30.70535,30.70535,0,0,0,1100.10333,208.79833Z"/><path class="cls-2" d="M1215.8006,31.478V222.96826H1192.661V31.478Z"/></g></g></svg>